<svg xmlns="http://www.w3.org/2000/svg" width="24" height="24" viewBox="0 0 24 24" fill="none">
  <defs>
    <linearGradient id="gradient" x1="0%" y1="0%" x2="100%" y2="0%">
      <stop offset="0%" style="stop-color:#4f46e5" />
      <stop offset="100%" style="stop-color:#818cf8" />
    </linearGradient>
  </defs>
  <path d="M19.875 6.27a2.225 2.225 0 0 1 1.125 1.948v7.284c0 .809 -.443 1.555 -1.158 1.948l-6.75 4.27a2.269 2.269 0 0 1 -2.184 0l-6.75 -4.27a2.225 2.225 0 0 1 -1.158 -1.948v-7.285c0 -.809 .443 -1.554 1.158 -1.947l6.75 -3.98a2.33 2.33 0 0 1 2.25 0l6.75 3.98h-.033z" 
        stroke="url(#gradient)" 
        stroke-width="2" 
        stroke-linecap="round" 
        stroke-linejoin="round" />
  <path d="M10 8v8" 
        stroke="url(#gradient)" 
        stroke-width="2" 
        stroke-linecap="round" 
        stroke-linejoin="round" />
  <path d="M14 8l-2.5 4l2.5 4" 
        stroke="url(#gradient)" 
        stroke-width="2" 
        stroke-linecap="round" 
        stroke-linejoin="round" />
  <path d="M10 12h1.5" 
        stroke="url(#gradient)" 
        stroke-width="2" 
        stroke-linecap="round" 
        stroke-linejoin="round" />
</svg>
